<mxfile host="app.diagrams.net" modified="2024-07-03T09:04:40.616Z" agent="Mozilla/5.0 (Windows NT 10.0; Win64; x64) AppleWebKit/537.36 (KHTML, like Gecko) Chrome/126.0.0.0 Safari/537.36" etag="phA5HBV_nPEghPKQBy6F" version="24.6.4" type="github">
  <diagram name="Page-1" id="wKSIusGrqr3V_k_r4DR-">
    <mxGraphModel dx="2074" dy="1140" grid="1" gridSize="10" guides="1" tooltips="1" connect="1" arrows="1" fold="1" page="1" pageScale="1" pageWidth="850" pageHeight="1100" math="0" shadow="0">
      <root>
        <mxCell id="0" />
        <mxCell id="1" parent="0" />
        <mxCell id="Agiuoe7lh5ngSEae1jQk-2" value="" style="shape=datastore;whiteSpace=wrap;html=1;" parent="1" vertex="1">
          <mxGeometry x="80" y="460" width="60" height="60" as="geometry" />
        </mxCell>
        <mxCell id="Agiuoe7lh5ngSEae1jQk-4" value="Logical Address Space" style="rounded=0;whiteSpace=wrap;html=1;fillColor=none;strokeColor=none;fontSize=15;fontFamily=Helvetica;" parent="1" vertex="1">
          <mxGeometry x="30" y="80" width="160" height="40" as="geometry" />
        </mxCell>
        <mxCell id="Agiuoe7lh5ngSEae1jQk-5" value="&lt;font style=&quot;font-size: 18px;&quot;&gt;I/O request classifier&lt;/font&gt;" style="rounded=1;whiteSpace=wrap;html=1;fillColor=none;" parent="1" vertex="1">
          <mxGeometry x="201" y="130" width="200" height="40" as="geometry" />
        </mxCell>
        <mxCell id="Agiuoe7lh5ngSEae1jQk-6" value="" style="rounded=0;whiteSpace=wrap;html=1;strokeColor=none;gradientColor=none;fillColor=#808080;" parent="1" vertex="1">
          <mxGeometry x="40" y="250" width="40" height="20" as="geometry" />
        </mxCell>
        <mxCell id="Agiuoe7lh5ngSEae1jQk-7" value="" style="rounded=0;whiteSpace=wrap;html=1;strokeColor=none;gradientColor=none;fillColor=#CCCCCC;" parent="1" vertex="1">
          <mxGeometry x="40" y="290" width="40" height="20" as="geometry" />
        </mxCell>
        <mxCell id="Agiuoe7lh5ngSEae1jQk-8" value="" style="endArrow=none;html=1;rounded=0;entryX=0.5;entryY=1;entryDx=0;entryDy=0;exitX=0.5;exitY=0;exitDx=0;exitDy=0;" parent="1" source="Agiuoe7lh5ngSEae1jQk-7" target="Agiuoe7lh5ngSEae1jQk-6" edge="1">
          <mxGeometry width="50" height="50" relative="1" as="geometry">
            <mxPoint x="80" y="330" as="sourcePoint" />
            <mxPoint x="130" y="280" as="targetPoint" />
          </mxGeometry>
        </mxCell>
        <mxCell id="Agiuoe7lh5ngSEae1jQk-9" value="" style="rounded=0;whiteSpace=wrap;html=1;strokeColor=none;gradientColor=none;fillColor=#808080;" parent="1" vertex="1">
          <mxGeometry x="100" y="250" width="40" height="20" as="geometry" />
        </mxCell>
        <mxCell id="Agiuoe7lh5ngSEae1jQk-10" value="" style="rounded=0;whiteSpace=wrap;html=1;strokeColor=none;gradientColor=none;fillColor=#CCCCCC;" parent="1" vertex="1">
          <mxGeometry x="100" y="290" width="40" height="20" as="geometry" />
        </mxCell>
        <mxCell id="Agiuoe7lh5ngSEae1jQk-11" value="" style="endArrow=none;html=1;rounded=0;entryX=0.5;entryY=1;entryDx=0;entryDy=0;exitX=0.5;exitY=0;exitDx=0;exitDy=0;" parent="1" source="Agiuoe7lh5ngSEae1jQk-10" target="Agiuoe7lh5ngSEae1jQk-9" edge="1">
          <mxGeometry width="50" height="50" relative="1" as="geometry">
            <mxPoint x="140" y="330" as="sourcePoint" />
            <mxPoint x="190" y="280" as="targetPoint" />
          </mxGeometry>
        </mxCell>
        <mxCell id="Agiuoe7lh5ngSEae1jQk-15" value="" style="rounded=0;whiteSpace=wrap;html=1;strokeColor=none;gradientColor=none;fillColor=#808080;" parent="1" vertex="1">
          <mxGeometry x="160" y="250" width="40" height="20" as="geometry" />
        </mxCell>
        <mxCell id="Agiuoe7lh5ngSEae1jQk-16" value="" style="rounded=0;whiteSpace=wrap;html=1;strokeColor=none;gradientColor=none;fillColor=#CCCCCC;" parent="1" vertex="1">
          <mxGeometry x="160" y="290" width="40" height="20" as="geometry" />
        </mxCell>
        <mxCell id="Agiuoe7lh5ngSEae1jQk-17" value="" style="endArrow=none;html=1;rounded=0;entryX=0.5;entryY=1;entryDx=0;entryDy=0;exitX=0.5;exitY=0;exitDx=0;exitDy=0;" parent="1" source="Agiuoe7lh5ngSEae1jQk-16" target="Agiuoe7lh5ngSEae1jQk-15" edge="1">
          <mxGeometry width="50" height="50" relative="1" as="geometry">
            <mxPoint x="200" y="330" as="sourcePoint" />
            <mxPoint x="250" y="280" as="targetPoint" />
          </mxGeometry>
        </mxCell>
        <mxCell id="Agiuoe7lh5ngSEae1jQk-18" value="" style="rounded=0;whiteSpace=wrap;html=1;strokeColor=none;gradientColor=none;fillColor=#808080;" parent="1" vertex="1">
          <mxGeometry x="220" y="250" width="40" height="20" as="geometry" />
        </mxCell>
        <mxCell id="Agiuoe7lh5ngSEae1jQk-19" value="" style="rounded=0;whiteSpace=wrap;html=1;strokeColor=none;gradientColor=none;fillColor=#CCCCCC;" parent="1" vertex="1">
          <mxGeometry x="220" y="290" width="40" height="20" as="geometry" />
        </mxCell>
        <mxCell id="Agiuoe7lh5ngSEae1jQk-20" value="" style="endArrow=none;html=1;rounded=0;entryX=0.5;entryY=1;entryDx=0;entryDy=0;exitX=0.5;exitY=0;exitDx=0;exitDy=0;" parent="1" source="Agiuoe7lh5ngSEae1jQk-19" target="Agiuoe7lh5ngSEae1jQk-18" edge="1">
          <mxGeometry width="50" height="50" relative="1" as="geometry">
            <mxPoint x="260" y="330" as="sourcePoint" />
            <mxPoint x="310" y="280" as="targetPoint" />
          </mxGeometry>
        </mxCell>
        <mxCell id="Agiuoe7lh5ngSEae1jQk-21" value="Soft area" style="rounded=0;whiteSpace=wrap;html=1;fillColor=none;strokeColor=none;fontSize=18;" parent="1" vertex="1">
          <mxGeometry x="110" y="220" width="80" height="20" as="geometry" />
        </mxCell>
        <mxCell id="Agiuoe7lh5ngSEae1jQk-28" value="" style="rounded=0;whiteSpace=wrap;html=1;strokeColor=default;fillColor=#CCCCCC;" parent="1" vertex="1">
          <mxGeometry x="460" y="290" width="20" height="20" as="geometry" />
        </mxCell>
        <mxCell id="Agiuoe7lh5ngSEae1jQk-31" value="" style="rounded=0;whiteSpace=wrap;html=1;strokeColor=default;fillColor=#333333;" parent="1" vertex="1">
          <mxGeometry x="400" y="250" width="20" height="20" as="geometry" />
        </mxCell>
        <mxCell id="Agiuoe7lh5ngSEae1jQk-35" value="" style="rounded=0;whiteSpace=wrap;html=1;strokeColor=default;fillColor=none;fontSize=18;fontStyle=1" parent="1" vertex="1">
          <mxGeometry x="400" y="270" width="20" height="20" as="geometry" />
        </mxCell>
        <mxCell id="Agiuoe7lh5ngSEae1jQk-38" value="P" style="rounded=0;whiteSpace=wrap;html=1;strokeColor=default;fillColor=none;fontSize=18;fontStyle=1" parent="1" vertex="1">
          <mxGeometry x="480" y="250" width="20" height="20" as="geometry" />
        </mxCell>
        <mxCell id="Agiuoe7lh5ngSEae1jQk-42" value="RAID area" style="rounded=0;whiteSpace=wrap;html=1;fillColor=none;strokeColor=none;fontSize=18;" parent="1" vertex="1">
          <mxGeometry x="401" y="220" width="100" height="20" as="geometry" />
        </mxCell>
        <mxCell id="Agiuoe7lh5ngSEae1jQk-44" value="&lt;font style=&quot;font-size: 12px;&quot;&gt;Write back&lt;/font&gt;" style="rounded=0;whiteSpace=wrap;html=1;fillColor=none;strokeColor=none;fontSize=15;fontFamily=Helvetica;" parent="1" vertex="1">
          <mxGeometry x="280" y="290" width="100" height="20" as="geometry" />
        </mxCell>
        <mxCell id="Agiuoe7lh5ngSEae1jQk-46" value="" style="rounded=0;whiteSpace=wrap;html=1;strokeColor=default;fillColor=#333333;" parent="1" vertex="1">
          <mxGeometry x="420" y="250" width="20" height="20" as="geometry" />
        </mxCell>
        <mxCell id="Agiuoe7lh5ngSEae1jQk-47" value="" style="rounded=0;whiteSpace=wrap;html=1;strokeColor=default;fillColor=#333333;" parent="1" vertex="1">
          <mxGeometry x="440" y="250" width="20" height="20" as="geometry" />
        </mxCell>
        <mxCell id="Agiuoe7lh5ngSEae1jQk-48" value="" style="rounded=0;whiteSpace=wrap;html=1;strokeColor=default;fillColor=#333333;" parent="1" vertex="1">
          <mxGeometry x="460" y="250" width="20" height="20" as="geometry" />
        </mxCell>
        <mxCell id="Agiuoe7lh5ngSEae1jQk-50" value="P" style="rounded=0;whiteSpace=wrap;html=1;strokeColor=default;fillColor=none;fontSize=18;fontStyle=1" parent="1" vertex="1">
          <mxGeometry x="480" y="290" width="20" height="20" as="geometry" />
        </mxCell>
        <mxCell id="Agiuoe7lh5ngSEae1jQk-51" value="P" style="rounded=0;whiteSpace=wrap;html=1;strokeColor=default;fillColor=none;fontSize=18;fontStyle=1" parent="1" vertex="1">
          <mxGeometry x="480" y="270" width="20" height="20" as="geometry" />
        </mxCell>
        <mxCell id="Agiuoe7lh5ngSEae1jQk-60" value="" style="rounded=0;whiteSpace=wrap;html=1;strokeColor=default;fillColor=none;fontSize=18;fontStyle=1" parent="1" vertex="1">
          <mxGeometry x="420" y="270" width="20" height="20" as="geometry" />
        </mxCell>
        <mxCell id="Agiuoe7lh5ngSEae1jQk-61" value="" style="rounded=0;whiteSpace=wrap;html=1;strokeColor=default;fillColor=none;fontSize=18;fontStyle=1" parent="1" vertex="1">
          <mxGeometry x="440" y="270" width="20" height="20" as="geometry" />
        </mxCell>
        <mxCell id="Agiuoe7lh5ngSEae1jQk-62" value="" style="rounded=0;whiteSpace=wrap;html=1;strokeColor=default;fillColor=none;fontSize=18;fontStyle=1" parent="1" vertex="1">
          <mxGeometry x="460" y="270" width="20" height="20" as="geometry" />
        </mxCell>
        <mxCell id="Agiuoe7lh5ngSEae1jQk-63" value="" style="rounded=0;whiteSpace=wrap;html=1;strokeColor=default;fillColor=#CCCCCC;" parent="1" vertex="1">
          <mxGeometry x="400" y="290" width="20" height="20" as="geometry" />
        </mxCell>
        <mxCell id="Agiuoe7lh5ngSEae1jQk-64" value="" style="rounded=0;whiteSpace=wrap;html=1;strokeColor=default;fillColor=#CCCCCC;" parent="1" vertex="1">
          <mxGeometry x="420" y="290" width="20" height="20" as="geometry" />
        </mxCell>
        <mxCell id="Agiuoe7lh5ngSEae1jQk-65" value="" style="rounded=0;whiteSpace=wrap;html=1;strokeColor=default;fillColor=#CCCCCC;" parent="1" vertex="1">
          <mxGeometry x="440" y="290" width="20" height="20" as="geometry" />
        </mxCell>
        <mxCell id="Agiuoe7lh5ngSEae1jQk-66" value="" style="shape=datastore;whiteSpace=wrap;html=1;" parent="1" vertex="1">
          <mxGeometry x="160" y="460" width="60" height="60" as="geometry" />
        </mxCell>
        <mxCell id="Agiuoe7lh5ngSEae1jQk-67" value="" style="shape=datastore;whiteSpace=wrap;html=1;" parent="1" vertex="1">
          <mxGeometry x="240" y="460" width="60" height="60" as="geometry" />
        </mxCell>
        <mxCell id="Agiuoe7lh5ngSEae1jQk-68" value="" style="shape=datastore;whiteSpace=wrap;html=1;" parent="1" vertex="1">
          <mxGeometry x="320" y="460" width="60" height="60" as="geometry" />
        </mxCell>
        <mxCell id="Agiuoe7lh5ngSEae1jQk-69" value="" style="shape=datastore;whiteSpace=wrap;html=1;" parent="1" vertex="1">
          <mxGeometry x="400" y="460" width="60" height="60" as="geometry" />
        </mxCell>
        <mxCell id="Agiuoe7lh5ngSEae1jQk-70" value="&lt;font style=&quot;font-size: 18px;&quot;&gt;Block distributor&lt;/font&gt;" style="rounded=1;whiteSpace=wrap;html=1;fillColor=none;" parent="1" vertex="1">
          <mxGeometry x="200" y="370" width="200" height="40" as="geometry" />
        </mxCell>
        <mxCell id="Agiuoe7lh5ngSEae1jQk-71" value="" style="endArrow=classic;startArrow=classic;html=1;rounded=0;" parent="1" edge="1">
          <mxGeometry width="50" height="50" relative="1" as="geometry">
            <mxPoint x="150" y="220" as="sourcePoint" />
            <mxPoint x="200" y="170" as="targetPoint" />
          </mxGeometry>
        </mxCell>
        <mxCell id="Agiuoe7lh5ngSEae1jQk-72" value="Small write" style="rounded=0;whiteSpace=wrap;html=1;fillColor=none;strokeColor=none;fontSize=12;fontFamily=Helvetica;" parent="1" vertex="1">
          <mxGeometry x="90.5" y="180" width="80" height="20" as="geometry" />
        </mxCell>
        <mxCell id="Agiuoe7lh5ngSEae1jQk-73" value="Large write" style="rounded=0;whiteSpace=wrap;html=1;fillColor=none;strokeColor=none;fontSize=12;fontFamily=Helvetica;" parent="1" vertex="1">
          <mxGeometry x="430" y="180" width="80" height="20" as="geometry" />
        </mxCell>
        <mxCell id="Agiuoe7lh5ngSEae1jQk-75" value="" style="endArrow=classic;startArrow=classic;html=1;rounded=0;" parent="1" edge="1">
          <mxGeometry width="50" height="50" relative="1" as="geometry">
            <mxPoint x="455" y="220" as="sourcePoint" />
            <mxPoint x="405" y="170" as="targetPoint" />
          </mxGeometry>
        </mxCell>
        <mxCell id="Agiuoe7lh5ngSEae1jQk-78" value="Read" style="rounded=0;whiteSpace=wrap;html=1;fillColor=none;strokeColor=none;fontSize=12;fontFamily=Helvetica;" parent="1" vertex="1">
          <mxGeometry x="170.5" y="200" width="40" height="20" as="geometry" />
        </mxCell>
        <mxCell id="Agiuoe7lh5ngSEae1jQk-79" value="Read" style="rounded=0;whiteSpace=wrap;html=1;fillColor=none;strokeColor=none;fontSize=12;fontFamily=Helvetica;" parent="1" vertex="1">
          <mxGeometry x="390" y="200" width="40" height="20" as="geometry" />
        </mxCell>
        <mxCell id="Agiuoe7lh5ngSEae1jQk-80" value="" style="endArrow=classic;html=1;rounded=0;strokeWidth=5;" parent="1" edge="1">
          <mxGeometry width="50" height="50" relative="1" as="geometry">
            <mxPoint x="430.5" y="320" as="sourcePoint" />
            <mxPoint x="330.5" y="360" as="targetPoint" />
          </mxGeometry>
        </mxCell>
        <mxCell id="Agiuoe7lh5ngSEae1jQk-81" value="&lt;span style=&quot;font-size: 12px;&quot;&gt;Persist to array&lt;/span&gt;" style="rounded=0;whiteSpace=wrap;html=1;fillColor=none;strokeColor=none;fontSize=15;fontFamily=Helvetica;" parent="1" vertex="1">
          <mxGeometry x="400" y="330" width="100" height="20" as="geometry" />
        </mxCell>
        <mxCell id="Agiuoe7lh5ngSEae1jQk-83" value="" style="rounded=1;whiteSpace=wrap;html=1;fillColor=none;" parent="1" vertex="1">
          <mxGeometry x="10.5" y="440" width="520" height="160" as="geometry" />
        </mxCell>
        <mxCell id="Agiuoe7lh5ngSEae1jQk-84" value="" style="endArrow=classic;html=1;rounded=0;exitX=0;exitY=1;exitDx=0;exitDy=0;entryX=0.5;entryY=0;entryDx=0;entryDy=0;" parent="1" source="Agiuoe7lh5ngSEae1jQk-70" target="Agiuoe7lh5ngSEae1jQk-2" edge="1">
          <mxGeometry width="50" height="50" relative="1" as="geometry">
            <mxPoint x="450.5" y="570" as="sourcePoint" />
            <mxPoint x="340.5" y="550" as="targetPoint" />
          </mxGeometry>
        </mxCell>
        <mxCell id="Agiuoe7lh5ngSEae1jQk-85" value="" style="endArrow=classic;html=1;rounded=0;exitX=0.25;exitY=1;exitDx=0;exitDy=0;entryX=0.5;entryY=0;entryDx=0;entryDy=0;" parent="1" source="Agiuoe7lh5ngSEae1jQk-70" target="Agiuoe7lh5ngSEae1jQk-66" edge="1">
          <mxGeometry width="50" height="50" relative="1" as="geometry">
            <mxPoint x="520.5" y="600" as="sourcePoint" />
            <mxPoint x="570.5" y="550" as="targetPoint" />
          </mxGeometry>
        </mxCell>
        <mxCell id="Agiuoe7lh5ngSEae1jQk-86" value="" style="endArrow=classic;html=1;rounded=0;exitX=0.5;exitY=1;exitDx=0;exitDy=0;entryX=0.5;entryY=0;entryDx=0;entryDy=0;" parent="1" source="Agiuoe7lh5ngSEae1jQk-70" target="Agiuoe7lh5ngSEae1jQk-67" edge="1">
          <mxGeometry width="50" height="50" relative="1" as="geometry">
            <mxPoint x="520.5" y="600" as="sourcePoint" />
            <mxPoint x="570.5" y="550" as="targetPoint" />
          </mxGeometry>
        </mxCell>
        <mxCell id="Agiuoe7lh5ngSEae1jQk-87" value="" style="endArrow=classic;html=1;rounded=0;exitX=0.75;exitY=1;exitDx=0;exitDy=0;entryX=0.5;entryY=0;entryDx=0;entryDy=0;" parent="1" source="Agiuoe7lh5ngSEae1jQk-70" target="Agiuoe7lh5ngSEae1jQk-68" edge="1">
          <mxGeometry width="50" height="50" relative="1" as="geometry">
            <mxPoint x="520.5" y="600" as="sourcePoint" />
            <mxPoint x="570.5" y="550" as="targetPoint" />
          </mxGeometry>
        </mxCell>
        <mxCell id="Agiuoe7lh5ngSEae1jQk-88" value="" style="endArrow=classic;html=1;rounded=0;exitX=1;exitY=1;exitDx=0;exitDy=0;entryX=0.5;entryY=0;entryDx=0;entryDy=0;" parent="1" source="Agiuoe7lh5ngSEae1jQk-70" target="Agiuoe7lh5ngSEae1jQk-69" edge="1">
          <mxGeometry width="50" height="50" relative="1" as="geometry">
            <mxPoint x="520.5" y="600" as="sourcePoint" />
            <mxPoint x="570.5" y="550" as="targetPoint" />
          </mxGeometry>
        </mxCell>
        <mxCell id="Agiuoe7lh5ngSEae1jQk-89" value="Physcial flash array" style="rounded=0;whiteSpace=wrap;html=1;fillColor=none;strokeColor=none;fontSize=15;fontFamily=Helvetica;" parent="1" vertex="1">
          <mxGeometry x="10" y="550" width="160" height="40" as="geometry" />
        </mxCell>
        <mxCell id="zo2t5swEmiC2CRev4n1Q-1" value="User Application" style="rounded=1;whiteSpace=wrap;html=1;fillColor=none;fontSize=18;" vertex="1" parent="1">
          <mxGeometry x="180" width="240" height="40" as="geometry" />
        </mxCell>
        <mxCell id="zo2t5swEmiC2CRev4n1Q-2" value="" style="endArrow=classic;html=1;rounded=0;exitX=0.5;exitY=1;exitDx=0;exitDy=0;entryX=0.5;entryY=0;entryDx=0;entryDy=0;" edge="1" parent="1" source="zo2t5swEmiC2CRev4n1Q-1" target="Agiuoe7lh5ngSEae1jQk-5">
          <mxGeometry width="50" height="50" relative="1" as="geometry">
            <mxPoint x="640" y="215" as="sourcePoint" />
            <mxPoint x="660" y="80" as="targetPoint" />
          </mxGeometry>
        </mxCell>
        <mxCell id="Agiuoe7lh5ngSEae1jQk-82" value="" style="rounded=1;whiteSpace=wrap;html=1;fillColor=none;" parent="1" vertex="1">
          <mxGeometry x="10.5" y="80" width="520" height="340" as="geometry" />
        </mxCell>
        <mxCell id="zo2t5swEmiC2CRev4n1Q-4" value="I/O request" style="rounded=0;whiteSpace=wrap;html=1;fillColor=none;strokeColor=none;" vertex="1" parent="1">
          <mxGeometry x="300" y="50" width="80" height="20" as="geometry" />
        </mxCell>
        <mxCell id="zo2t5swEmiC2CRev4n1Q-5" value="" style="endArrow=classic;html=1;rounded=0;strokeWidth=5;" edge="1" parent="1">
          <mxGeometry width="50" height="50" relative="1" as="geometry">
            <mxPoint x="270" y="280" as="sourcePoint" />
            <mxPoint x="390" y="280" as="targetPoint" />
          </mxGeometry>
        </mxCell>
        <mxCell id="zo2t5swEmiC2CRev4n1Q-6" value="" style="rounded=0;whiteSpace=wrap;html=1;fillColor=#000000;" vertex="1" parent="1">
          <mxGeometry x="420" y="490" width="20" height="20" as="geometry" />
        </mxCell>
        <mxCell id="zo2t5swEmiC2CRev4n1Q-7" value="" style="rounded=0;whiteSpace=wrap;html=1;fillColor=#FFFFFF;" vertex="1" parent="1">
          <mxGeometry x="340" y="490" width="20" height="20" as="geometry" />
        </mxCell>
        <mxCell id="zo2t5swEmiC2CRev4n1Q-8" value="" style="rounded=0;whiteSpace=wrap;html=1;fillColor=#CCCCCC;" vertex="1" parent="1">
          <mxGeometry x="400" y="490" width="20" height="20" as="geometry" />
        </mxCell>
        <mxCell id="zo2t5swEmiC2CRev4n1Q-11" value="" style="rounded=0;whiteSpace=wrap;html=1;fillColor=#000000;" vertex="1" parent="1">
          <mxGeometry x="80" y="490" width="20" height="20" as="geometry" />
        </mxCell>
        <mxCell id="zo2t5swEmiC2CRev4n1Q-12" value="" style="rounded=0;whiteSpace=wrap;html=1;fillColor=#000000;" vertex="1" parent="1">
          <mxGeometry x="240" y="490" width="20" height="20" as="geometry" />
        </mxCell>
        <mxCell id="zo2t5swEmiC2CRev4n1Q-13" value="" style="rounded=0;whiteSpace=wrap;html=1;fillColor=#000000;" vertex="1" parent="1">
          <mxGeometry x="320" y="490" width="20" height="20" as="geometry" />
        </mxCell>
        <mxCell id="zo2t5swEmiC2CRev4n1Q-14" value="" style="rounded=0;whiteSpace=wrap;html=1;fillColor=#FFFFFF;" vertex="1" parent="1">
          <mxGeometry x="100" y="490" width="20" height="20" as="geometry" />
        </mxCell>
        <mxCell id="zo2t5swEmiC2CRev4n1Q-15" value="" style="rounded=0;whiteSpace=wrap;html=1;fillColor=#FFFFFF;" vertex="1" parent="1">
          <mxGeometry x="200" y="490" width="20" height="20" as="geometry" />
        </mxCell>
        <mxCell id="zo2t5swEmiC2CRev4n1Q-16" value="" style="rounded=0;whiteSpace=wrap;html=1;fillColor=#FFFFFF;" vertex="1" parent="1">
          <mxGeometry x="440" y="490" width="20" height="20" as="geometry" />
        </mxCell>
        <mxCell id="zo2t5swEmiC2CRev4n1Q-18" value="" style="rounded=0;whiteSpace=wrap;html=1;fillColor=#CCCCCC;" vertex="1" parent="1">
          <mxGeometry x="160" y="490" width="20" height="20" as="geometry" />
        </mxCell>
        <mxCell id="zo2t5swEmiC2CRev4n1Q-19" value="" style="rounded=0;whiteSpace=wrap;html=1;fillColor=#CCCCCC;" vertex="1" parent="1">
          <mxGeometry x="280" y="490" width="20" height="20" as="geometry" />
        </mxCell>
        <mxCell id="zo2t5swEmiC2CRev4n1Q-20" value="" style="rounded=0;whiteSpace=wrap;html=1;fillColor=#CCCCCC;" vertex="1" parent="1">
          <mxGeometry x="360" y="490" width="20" height="20" as="geometry" />
        </mxCell>
        <mxCell id="zo2t5swEmiC2CRev4n1Q-21" value="P" style="rounded=0;whiteSpace=wrap;html=1;fillColor=none;fontStyle=1;fontSize=18;" vertex="1" parent="1">
          <mxGeometry x="120" y="490" width="20" height="20" as="geometry" />
        </mxCell>
        <mxCell id="zo2t5swEmiC2CRev4n1Q-22" value="P" style="rounded=0;whiteSpace=wrap;html=1;fillColor=none;fontStyle=1;fontSize=18;" vertex="1" parent="1">
          <mxGeometry x="180" y="490" width="20" height="20" as="geometry" />
        </mxCell>
        <mxCell id="zo2t5swEmiC2CRev4n1Q-23" value="P" style="rounded=0;whiteSpace=wrap;html=1;fillColor=none;fontStyle=1;fontSize=18;" vertex="1" parent="1">
          <mxGeometry x="260" y="490" width="20" height="20" as="geometry" />
        </mxCell>
        <mxCell id="zo2t5swEmiC2CRev4n1Q-24" value="SSD 1" style="rounded=0;whiteSpace=wrap;html=1;fillColor=none;strokeColor=none;fontSize=12;fontFamily=Helvetica;" vertex="1" parent="1">
          <mxGeometry x="80" y="530" width="60" height="20" as="geometry" />
        </mxCell>
        <mxCell id="zo2t5swEmiC2CRev4n1Q-25" value="SSD 2" style="rounded=0;whiteSpace=wrap;html=1;fillColor=none;strokeColor=none;fontSize=12;fontFamily=Helvetica;" vertex="1" parent="1">
          <mxGeometry x="160" y="530" width="60" height="20" as="geometry" />
        </mxCell>
        <mxCell id="zo2t5swEmiC2CRev4n1Q-26" value="SSD 3" style="rounded=0;whiteSpace=wrap;html=1;fillColor=none;strokeColor=none;fontSize=12;fontFamily=Helvetica;" vertex="1" parent="1">
          <mxGeometry x="240" y="530" width="60" height="20" as="geometry" />
        </mxCell>
        <mxCell id="zo2t5swEmiC2CRev4n1Q-27" value="SSD 4" style="rounded=0;whiteSpace=wrap;html=1;fillColor=none;strokeColor=none;fontSize=12;fontFamily=Helvetica;" vertex="1" parent="1">
          <mxGeometry x="320" y="530" width="60" height="20" as="geometry" />
        </mxCell>
        <mxCell id="zo2t5swEmiC2CRev4n1Q-28" value="SSD 5" style="rounded=0;whiteSpace=wrap;html=1;fillColor=none;strokeColor=none;fontSize=12;fontFamily=Helvetica;" vertex="1" parent="1">
          <mxGeometry x="400" y="530" width="60" height="20" as="geometry" />
        </mxCell>
      </root>
    </mxGraphModel>
  </diagram>
</mxfile>
